<?xml version="1.0" encoding="UTF-8" standalone="no"?>
<!-- Created with Inkscape (http://www.inkscape.org/) -->

<svg
   width="64mm"
   height="64mm"
   viewBox="0 0 64 64"
   version="1.1"
   id="svg1"
   xml:space="preserve"
   sodipodi:docname="calc-logo.svg"
   inkscape:version="1.3.2 (091e20ef0f, 2023-11-25, custom)"
   xmlns:inkscape="http://www.inkscape.org/namespaces/inkscape"
   xmlns:sodipodi="http://sodipodi.sourceforge.net/DTD/sodipodi-0.dtd"
   xmlns="http://www.w3.org/2000/svg"
   xmlns:svg="http://www.w3.org/2000/svg"><sodipodi:namedview
     id="namedview1"
     pagecolor="#ffffff"
     bordercolor="#000000"
     borderopacity="0.25"
     inkscape:showpageshadow="2"
     inkscape:pageopacity="0.0"
     inkscape:pagecheckerboard="0"
     inkscape:deskcolor="#d1d1d1"
     inkscape:document-units="mm"
     inkscape:zoom="0.7554433"
     inkscape:cx="22.503343"
     inkscape:cy="276.65875"
     inkscape:window-width="1872"
     inkscape:window-height="1052"
     inkscape:window-x="48"
     inkscape:window-y="0"
     inkscape:window-maximized="1"
     inkscape:current-layer="layer1" /><defs
     id="defs1"><inkscape:path-effect
       effect="fill_between_many"
       method="originald"
       linkedpaths="#path13,0,1"
       id="path-effect15"
       is_visible="true"
       lpeversion="0"
       join="true"
       close="true"
       autoreverse="true" /></defs><g
     inkscape:label="Layer 1"
     inkscape:groupmode="layer"
     id="layer1"><path
       inkscape:original-d="M 0,0"
       inkscape:path-effect="#path-effect15"
       d="M -1.3965222e-6,1.75e-6 H 63.999999 V 64.000001 H -1.3965222e-6 Z"
       id="path15"
       style="fill:#dadada;fill-opacity:1" /><path
       style="fill:#343c4c;fill-opacity:1"
       d="m 79.670753,123.1 h 50.799997 v 50.8 H 79.670753 Z m 45.111457,38.67148 v -13.6787 c 0,-2.961 -1.5236,-4.35656 -2.62571,-5.0944 5.56576,-4.18389 2.62522,-14.15752 -5.63808,-14.09554 -7.81599,0.0671 -15.63215,-0.0434 -23.448285,2.6e-4 -4.174209,0.0233 -7.68227,3.42889 -7.71084,7.78648 -0.05509,8.00467 -0.110638,17.07152 2.65e-4,25.07561 0.0556,4.01269 3.297394,6.84283 7.471536,6.84288 l 23.975294,2.6e-4 c 4.08997,4e-5 7.97582,-2.76009 7.97582,-6.83685 z M 89.857212,137.01209 c 0,-1.88832 1.455767,-3.59334 3.400747,-3.59334 h 23.887361 c 1.34275,0 3.18004,1.47582 3.18004,3.59272 0,2.09014 -1.68117,3.81561 -3.0686,3.81561 H 97.748835 c -0.456512,0 -0.880165,0.073 -0.880165,0.74007 v 14.76451 c 0,0.40491 0.321842,0.635 0.783592,0.635 h 14.967008 c 0.35896,0 0.65357,-0.24699 0.65357,-0.635 v -3.15361 c 0,-0.43126 -0.17849,-0.7093 -0.635,-0.7093 -2.64379,-2.3e-4 -5.28758,2.8e-4 -7.93137,0 -1.80991,-1.9e-4 -3.16349,-2.15691 -3.16349,-3.73285 0,-1.61305 1.25905,-3.39423 3.27494,-3.4109 4.03885,-0.0532 8.07781,3.5e-4 12.11689,5e-5 1.49338,-1e-4 3.21521,1.54957 3.21521,3.21935 v 12.40458 c 0,1.68855 -1.71378,3.16146 -3.67917,3.16148 l -23.212684,2.2e-4 c -1.817571,2e-5 -3.400954,-1.13317 -3.400954,-3.05743 z"
       id="path13"
       sodipodi:nodetypes="cccccsscsssssssssscsssszzszzssssssssss"
       transform="matrix(1.2598426,0,0,1.2598425,-100.37261,-155.08661)" /></g></svg>
